<svg xmlns="http://www.w3.org/2000/svg" xmlns:xlink="http://www.w3.org/1999/xlink" width="1080" zoomAndPan="magnify" viewBox="0 0 810 809.999993" height="1080" preserveAspectRatio="xMidYMid meet" version="1.0"><defs><clipPath id="c8832f9d4e"><path d="M 206.082031 168.546875 L 603.582031 168.546875 L 603.582031 641 L 206.082031 641 Z M 206.082031 168.546875 " clip-rule="nonzero"/></clipPath></defs><g clip-path="url(#c8832f9d4e)"><path fill="#ffffff" d="M 595.957031 612.011719 C 602.925781 601.769531 603.910156 596.761719 603.507812 573.410156 C 602.953125 541.746094 579.332031 323.53125 575.3125 312.660156 C 572.664062 305.53125 570.765625 305.171875 537.457031 305.171875 L 502.414062 305.171875 L 502.414062 278.710938 C 502.414062 224.394531 488.761719 197.320312 452.195312 179.019531 C 434.761719 170.320312 427.632812 168.644531 407.597656 168.644531 C 377.535156 168.644531 356.992188 175.582031 338.242188 192.074219 C 317.402344 210.429688 309.03125 231.796875 306.804688 272.460938 L 305.007812 305.171875 L 272.269531 305.171875 C 241.980469 305.171875 239.199219 305.726562 234.773438 312.660156 C 229.929688 320.226562 206.082031 540.65625 206.082031 577.65625 C 206.082031 605.359375 218.835938 625.722656 242.816406 636.246094 C 252.699219 640.597656 276.574219 641.226562 409.4375 640.566406 L 564.5 639.773438 L 576.207031 631.761719 C 582.652344 627.351562 591.515625 618.441406 595.941406 611.996094 Z M 323.472656 272.429688 C 325.429688 236.640625 331.261719 220.644531 348.140625 204.644531 C 382.914062 171.605469 449.070312 179.722656 474.023438 220.058594 C 483.246094 234.980469 484.203125 239.300781 485.25 270.769531 L 486.402344 305.1875 L 321.679688 305.1875 L 323.472656 272.445312 Z M 573.800781 611.714844 L 561.992188 623.136719 L 409.824219 623.882812 C 298.964844 624.429688 238.984375 618.300781 229.882812 605.492188 C 221.046875 593.128906 220.628906 572.617188 227.730469 504.535156 C 235.191406 433.503906 235.519531 429.945312 239.316406 388.398438 C 241.214844 367.363281 243.667969 343.742188 244.773438 335.953125 L 246.808594 321.828125 L 305.996094 321.828125 L 305.996094 352.027344 C 305.996094 381.433594 306.191406 382.195312 313.484375 381.148438 C 320.484375 380.164062 321.007812 378.308594 321.933594 350.949219 L 322.875 321.828125 L 485.757812 321.828125 L 486.175781 336.808594 C 486.402344 345.042969 486.96875 353.296875 487.417969 355.121094 C 487.882812 356.914062 488.433594 362.96875 488.660156 368.53125 C 489.046875 378.113281 496.746094 385.1875 501.546875 380.371094 C 502.726562 379.191406 503.308594 365.527344 502.816406 350.007812 L 501.933594 321.8125 L 532.132812 321.8125 C 548.757812 321.8125 562.335938 322.960938 562.335938 324.367188 C 562.335938 325.773438 565.96875 359.140625 570.421875 398.460938 C 574.832031 437.78125 579.316406 478.941406 580.363281 489.929688 C 581.410156 500.917969 583.96875 525.136719 586.058594 543.75 C 590.769531 586.117188 588.78125 597.136719 573.785156 611.699219 Z M 573.800781 611.714844 " fill-opacity="1" fill-rule="nonzero"/></g></svg>