<svg xmlns="http://www.w3.org/2000/svg" xmlns:xlink="http://www.w3.org/1999/xlink" width="1080" zoomAndPan="magnify" viewBox="0 0 810 809.999993" height="1080" preserveAspectRatio="xMidYMid meet" version="1.0"><defs><clipPath id="8c78da4658"><path d="M 158.179688 256 L 651.679688 256 L 651.679688 553.734375 L 158.179688 553.734375 Z M 158.179688 256 " clip-rule="nonzero"/></clipPath></defs><g clip-path="url(#8c78da4658)"><path fill="#e51818" d="M 545.28125 489.699219 C 533.0625 489.699219 523.140625 499.269531 523.140625 511.074219 C 523.140625 522.878906 533.0625 532.449219 545.28125 532.449219 C 557.503906 532.449219 567.410156 522.878906 567.410156 511.074219 C 567.410156 499.269531 557.503906 489.699219 545.28125 489.699219 Z M 265.007812 489.699219 C 252.789062 489.699219 242.882812 499.269531 242.882812 511.074219 C 242.882812 522.878906 252.789062 532.449219 265.007812 532.449219 C 277.230469 532.449219 287.148438 522.878906 287.148438 511.074219 C 287.148438 499.269531 277.230469 489.699219 265.007812 489.699219 Z M 545.28125 468.1875 C 569.800781 468.1875 589.671875 487.386719 589.671875 511.074219 C 589.671875 534.757812 569.800781 553.960938 545.28125 553.960938 C 520.75 553.960938 500.878906 534.757812 500.878906 511.074219 C 500.878906 487.386719 520.75 468.1875 545.28125 468.1875 Z M 265.007812 468.1875 C 289.539062 468.1875 309.410156 487.386719 309.410156 511.074219 C 309.410156 534.757812 289.539062 553.960938 265.007812 553.960938 C 240.492188 553.960938 220.621094 534.757812 220.621094 511.074219 C 220.621094 487.386719 240.492188 468.1875 265.007812 468.1875 Z M 478.003906 416.117188 C 476.46875 416.117188 475.222656 417.363281 475.222656 418.902344 L 475.222656 421.089844 C 475.222656 422.628906 476.46875 423.875 478.003906 423.875 L 491.078125 423.875 C 492.613281 423.875 493.859375 422.628906 493.859375 421.089844 L 493.859375 418.902344 C 493.859375 417.363281 492.613281 416.117188 491.078125 416.117188 Z M 360.050781 338.015625 L 365.945312 338.015625 C 370.980469 338.15625 374.542969 339.652344 376.644531 342.5 C 378.734375 345.347656 379.773438 350.382812 379.773438 357.601562 L 379.773438 371.03125 C 379.667969 377.753906 378.511719 382.484375 376.316406 385.226562 C 374.105469 387.96875 370.304688 389.339844 364.90625 389.339844 L 360.050781 389.339844 Z M 303.367188 337.007812 C 307.710938 337.007812 310.898438 338.703125 312.957031 342.101562 C 315.019531 345.5 316.039062 350.683594 316.039062 357.652344 L 316.039062 371.082031 C 316.011719 377.664062 314.957031 382.519531 312.898438 385.652344 C 310.855469 388.78125 307.710938 390.347656 303.488281 390.347656 C 299.113281 390.347656 295.882812 388.75 293.777344 385.546875 C 291.6875 382.34375 290.636719 377.363281 290.636719 370.605469 L 290.636719 356.859375 C 290.710938 350.167969 291.78125 345.1875 293.839844 341.914062 C 295.898438 338.644531 299.070312 337.007812 303.367188 337.007812 Z M 343.847656 325.011719 L 343.847656 402.292969 L 364.621094 402.292969 C 374.390625 402.292969 382.074219 399.398438 387.632812 393.613281 C 393.195312 387.828125 395.976562 379.855469 395.976562 369.703125 L 395.976562 357.175781 C 395.871094 347.199219 393.03125 339.34375 387.46875 333.609375 C 381.90625 327.878906 374.4375 325.011719 365.070312 325.011719 Z M 485.96875 324.820312 C 480.421875 324.832031 475.929688 329.324219 475.914062 334.871094 L 475.914062 387.066406 C 475.914062 391.789062 479.203125 395.875 483.820312 396.894531 L 598.207031 421.996094 C 599.621094 422.3125 601.09375 422.1875 602.433594 421.648438 C 606.070312 420.175781 607.828125 416.027344 606.355469 412.382812 L 574.878906 334.085938 C 572.625 328.492188 567.199219 324.828125 561.171875 324.820312 Z M 303.367188 323.949219 C 294.304688 323.949219 287.210938 326.929688 282.097656 332.890625 C 277.003906 338.855469 274.449219 347.144531 274.449219 357.761719 L 274.449219 370.976562 C 274.523438 381.203125 277.125 389.15625 282.265625 394.835938 C 287.40625 400.511719 294.484375 403.355469 303.488281 403.355469 C 312.523438 403.355469 319.585938 400.488281 324.667969 394.753906 C 329.75 389.023438 332.304688 380.972656 332.304688 370.605469 L 332.304688 357.386719 C 332.230469 346.808594 329.613281 338.589844 324.472656 332.734375 C 319.332031 326.875 312.296875 323.949219 303.367188 323.949219 Z M 238.28125 323.949219 C 229.398438 323.949219 222.453125 326.824219 217.464844 332.574219 C 212.460938 338.324219 209.964844 346.507812 209.964844 357.121094 L 209.964844 370.125 C 209.964844 380.777344 212.382812 388.976562 217.207031 394.726562 C 222.050781 400.480469 228.992188 403.355469 238.074219 403.355469 C 246.699219 403.355469 253.390625 401.089844 258.125 396.558594 C 262.859375 392.03125 265.429688 385.359375 265.835938 376.550781 L 249.648438 376.550781 C 249.421875 381.785156 248.503906 385.402344 246.882812 387.402344 C 245.273438 389.402344 242.328125 390.402344 238.074219 390.402344 C 233.726562 390.402344 230.675781 388.96875 228.886719 386.101562 C 227.113281 383.238281 226.226562 377.964844 226.226562 370.285156 L 226.226562 355.691406 C 226.332031 349 227.296875 344.199219 229.082031 341.28125 C 230.886719 338.359375 233.953125 336.898438 238.28125 336.898438 C 242.550781 336.898438 245.484375 337.933594 247.078125 340.003906 C 248.667969 342.074219 249.542969 345.835938 249.691406 351.285156 L 265.957031 351.285156 C 265.324219 342.472656 262.738281 335.714844 258.214844 331.007812 C 253.675781 326.300781 247.03125 323.949219 238.28125 323.949219 Z M 574.445312 306.242188 C 582.246094 306.238281 589.265625 310.996094 592.152344 318.253906 L 632.285156 418.90625 C 634.976562 425.652344 636.359375 432.851562 636.34375 440.117188 L 636.238281 482.75 L 641.949219 482.75 C 647.390625 482.75 651.808594 487.164062 651.808594 492.613281 L 651.808594 504.984375 C 651.808594 510.429688 647.390625 514.847656 641.949219 514.847656 L 599.230469 514.847656 L 599.425781 511.074219 C 599.425781 482.1875 575.179688 458.769531 545.28125 458.769531 C 515.371094 458.769531 491.125 482.1875 491.125 511.074219 L 491.320312 514.847656 L 456.855469 514.847656 L 456.855469 306.296875 Z M 177.75 256.039062 L 428.609375 256.039062 C 438.0625 256.039062 445.957031 262.75 447.773438 271.667969 L 447.984375 273.804688 L 447.984375 514.847656 L 429.179688 514.847656 L 428.609375 514.90625 L 318.957031 514.90625 L 319.167969 511.074219 C 319.167969 482.1875 294.921875 458.769531 265.007812 458.769531 C 235.113281 458.769531 210.867188 482.1875 210.867188 511.074219 L 211.0625 514.90625 L 177.75 514.90625 C 166.945312 514.90625 158.179688 506.144531 158.179688 495.335938 L 158.179688 275.609375 C 158.179688 264.800781 166.945312 256.039062 177.75 256.039062 Z M 177.75 256.039062 " fill-opacity="1" fill-rule="evenodd"/></g></svg>