<?xml version="1.0" encoding="UTF-8"?>
<svg xmlns="http://www.w3.org/2000/svg" xmlns:xlink="http://www.w3.org/1999/xlink" width="375px" height="225px" viewBox="0 0 375 225" version="1.1">
<g id="surface1">
<path style=" stroke:none;fill-rule:nonzero;fill:rgb(13.725491%,12.156863%,12.54902%);fill-opacity:1;" d="M 134.191406 101.910156 C 134.191406 88.546875 144.496094 79.066406 158.941406 79.066406 C 168.253906 79.066406 175.605469 83.101562 178.816406 90.359375 L 168.839844 95.714844 C 166.453125 91.515625 162.898438 89.609375 158.863281 89.609375 C 152.355469 89.609375 147.238281 94.140625 147.238281 101.894531 C 147.238281 109.648438 152.355469 114.179688 158.863281 114.179688 C 162.898438 114.179688 166.453125 112.363281 168.839844 108.074219 L 178.816406 113.519531 C 175.589844 120.613281 168.253906 124.738281 158.941406 124.738281 C 144.511719 124.738281 134.191406 115.261719 134.191406 101.894531 Z M 134.191406 101.910156 "/>
<path style=" stroke:none;fill-rule:nonzero;fill:rgb(13.725491%,12.156863%,12.54902%);fill-opacity:1;" d="M 184.199219 104.191406 L 173.625 79.589844 L 186.898438 79.589844 L 194.820312 98.730469 M 186.121094 108.660156 L 184.199219 104.191406 L 186.914062 79.589844 L 194.835938 98.730469 L 196.09375 101.773438 L 186.914062 79.589844 L 173.640625 79.589844 M 196.921875 103.816406 L 199.351562 109.695312 L 211.890625 79.589844 L 224.265625 79.589844 C 217.589844 95.296875 210.898438 110.984375 204.226562 126.691406 C 199.933594 137.414062 193.828125 140.625 185.835938 140.625 C 181.304688 140.625 176.355469 139.140625 173.460938 136.574219 L 178.15625 127.425781 C 180.136719 129.164062 182.851562 130.230469 185.414062 130.230469 C 188.96875 130.230469 190.933594 128.671875 192.675781 124.710938 L 192.839844 124.304688 L 186.121094 108.660156 "/>
<path style=" stroke:none;fill-rule:nonzero;fill:rgb(13.725491%,12.156863%,12.54902%);fill-opacity:1;" d="M 263.894531 62.761719 L 263.894531 123.960938 L 251.609375 123.960938 L 251.609375 118.84375 C 248.398438 122.714844 243.691406 124.621094 237.75 124.621094 C 225.210938 124.621094 215.566406 115.710938 215.566406 101.773438 C 215.566406 87.839844 225.210938 78.929688 237.75 78.929688 C 243.195312 78.929688 247.816406 80.65625 251.023438 84.285156 L 251.023438 62.761719 Z M 251.265625 101.789062 C 251.265625 94.125 246.316406 89.503906 239.96875 89.503906 C 233.625 89.503906 228.585938 94.125 228.585938 101.789062 C 228.585938 109.453125 233.535156 114.074219 239.96875 114.074219 C 246.40625 114.074219 251.265625 109.453125 251.265625 101.789062 Z M 251.265625 101.789062 "/>
</g>
</svg>
