<?xml version="1.0" encoding="UTF-8"?>
<svg id="Layer_1" xmlns="http://www.w3.org/2000/svg" version="1.1" viewBox="0 0 24 24">
  <!-- Generator: Adobe Illustrator 29.8.0, SVG Export Plug-In . SVG Version: 2.1.1 Build 160)  -->
  <defs>
    <style>
      .st0 {
        stroke-width: .1px;
      }

      .st0, .st1 {
        fill: #fff;
        stroke: #0b0b0b;
        stroke-miterlimit: 10;
      }

      .st2 {
        fill: #231f20;
      }

      .st1 {
        stroke-width: .2px;
      }
    </style>
  </defs>
  <path class="st2" d="M2.58,12.58c.32-1.85,1.98-2.92,3.98-2.58,1.29.22,2.22.96,2.49,2.04l-1.51.5c-.23-.64-.68-.99-1.24-1.09-.9-.16-1.72.35-1.91,1.43s.42,1.83,1.32,1.98c.56.1,1.1-.07,1.53-.61l1.25.99c-.62.91-1.73,1.3-3.03,1.08-2-.35-3.21-1.91-2.89-3.76Z"/>
  <path class="st2" d="M20.71,7.6v8.62s-1.72,0-1.72,0v-.72c-.45.55-1.11.81-1.95.81-1.77,0-3.13-1.25-3.13-3.21s1.36-3.22,3.12-3.22c.77,0,1.42.24,1.87.75v-3.03s1.81,0,1.81,0ZM18.94,13.09c0-1.08-.7-1.73-1.59-1.73s-1.6.65-1.6,1.73.7,1.73,1.6,1.73,1.59-.65,1.59-1.73Z"/>
  <polygon class="st2" points="8.06 9.69 9.79 13.7 9.52 13.07 8.06 9.69 8.06 9.69"/>
  <path class="st2" d="M11,12.28s-.02-.04-.03-.06c0,0,0,0,0-.01,0,0,0,0,0-.01,0-.02,0-.05,0-.07-.35-.83-.71-1.66-1.06-2.49-.02,0-.03,0-.05-.01-.12,1.15-.25,2.31-.37,3.46l1.54-.76s-.01-.03-.02-.04Z"/>
  <path class="st2" d="M13.42,9.61l-1.77,4.24-.34-.83-1.56.77c.33.7.66,1.41.98,2.11l-.02.06c-.24.56-.52.78-1.02.78-.36,0-.74-.15-1.02-.4l-.66,1.29c.41.36,1.1.57,1.74.57,1.13,0,1.99-.45,2.59-1.96.94-2.21,1.88-4.42,2.82-6.63h-1.74Z"/>
  <path class="st1" d="M9.49,12.95c.09-1.08.18-2.15.28-3.23-.62.04-1.25.07-1.87.11.53,1.04,1.06,2.08,1.6,3.12Z"/>
  <path class="st0" d="M11.26,13.04c-.49.24-.97.49-1.46.73l-.36-.83c.5-.23,1-.47,1.5-.7.11.27.22.53.33.8Z"/>
  <path class="st2" d="M9.94,13.91"/>
</svg>