<svg xmlns="http://www.w3.org/2000/svg" xmlns:xlink="http://www.w3.org/1999/xlink" width="1080" zoomAndPan="magnify" viewBox="0 0 810 809.999993" height="1080" preserveAspectRatio="xMidYMid meet" version="1.0"><defs><clipPath id="2eb0223423"><path d="M 229 212.238281 L 580 212.238281 L 580 593.988281 L 229 593.988281 Z M 229 212.238281 " clip-rule="nonzero"/></clipPath></defs><rect x="-81" width="972" fill="#ffffff" y="-80.999999" height="971.999992" fill-opacity="1"/><rect x="-81" width="972" fill="#ffffff" y="-80.999999" height="971.999992" fill-opacity="1"/><g clip-path="url(#2eb0223423)"><path fill="#e51818" d="M 404.601562 593.683594 C 403.804688 593.683594 403.011719 593.683594 402.214844 593.683594 C 372.019531 585.738281 329.105469 566.664062 292.550781 526.136719 C 211.492188 436.335938 230.566406 313.164062 235.335938 289.320312 C 235.335938 286.9375 237.71875 284.554688 240.101562 283.757812 C 264.738281 274.222656 288.578125 264.6875 312.417969 254.355469 C 342.617188 241.640625 372.019531 227.335938 400.628906 213.828125 C 403.011719 212.238281 406.191406 212.238281 408.574219 213.828125 C 437.183594 228.132812 467.378906 241.640625 497.578125 255.152344 C 520.625 265.480469 545.257812 275.019531 569.894531 284.554688 C 572.277344 285.347656 574.660156 287.734375 574.660156 290.117188 C 579.429688 313.957031 598.5 437.132812 516.648438 526.929688 C 480.09375 567.460938 437.183594 585.738281 406.984375 593.683594 C 406.191406 593.683594 405.394531 593.683594 404.601562 593.683594 Z M 249.636719 296.472656 C 245.664062 322.699219 232.15625 434.746094 304.472656 515.804688 C 337.847656 552.359375 376.785156 569.84375 404.601562 577.789062 C 432.414062 569.84375 471.355469 552.359375 504.730469 515.804688 C 577.046875 434.746094 563.535156 322.699219 559.5625 296.472656 C 536.515625 287.734375 513.472656 278.195312 491.21875 268.660156 C 461.816406 255.945312 433.210938 242.4375 405.394531 228.925781 C 377.582031 242.4375 348.179688 255.945312 319.570312 268.660156 C 296.523438 278.195312 273.480469 287.734375 249.636719 296.472656 Z M 249.636719 296.472656 " fill-opacity="1" fill-rule="nonzero"/></g><path fill="#e51818" d="M 404.601562 482.429688 C 360.894531 482.429688 325.132812 446.667969 325.132812 402.960938 C 325.132812 359.253906 360.894531 323.492188 404.601562 323.492188 C 409.367188 323.492188 412.546875 326.671875 412.546875 331.441406 C 412.546875 336.207031 409.367188 339.386719 404.601562 339.386719 C 369.632812 339.386719 341.027344 367.996094 341.027344 402.960938 C 341.027344 437.925781 369.632812 466.535156 404.601562 466.535156 C 439.566406 466.535156 468.175781 437.925781 468.175781 402.960938 C 468.175781 398.191406 471.355469 395.015625 476.121094 395.015625 C 480.890625 395.015625 484.066406 398.191406 484.066406 402.960938 C 484.066406 446.667969 448.308594 482.429688 404.601562 482.429688 Z M 404.601562 482.429688 " fill-opacity="1" fill-rule="nonzero"/><path fill="#e51818" d="M 412.546875 426.800781 C 410.164062 426.800781 408.574219 426.007812 406.984375 424.417969 L 375.199219 392.628906 C 372.019531 389.453125 372.019531 384.683594 375.199219 381.503906 C 378.375 378.324219 383.144531 378.324219 386.324219 381.503906 L 411.753906 406.933594 L 469.765625 334.617188 C 472.148438 331.441406 477.710938 330.644531 480.890625 333.027344 C 484.070312 335.414062 484.863281 340.976562 482.480469 344.15625 L 418.90625 423.621094 C 417.316406 425.210938 414.929688 426.800781 412.546875 426.800781 Z M 412.546875 426.800781 " fill-opacity="1" fill-rule="nonzero"/></svg>